<svg xmlns="http://www.w3.org/2000/svg" width="192" height="192" viewBox="0 0 192 192" fill="none">
  <rect width="192" height="192" rx="48" fill="#0EA5E9"/>
  <path d="M96 48C90.4772 48 86 52.4772 86 58V86H58C52.4772 86 48 90.4772 48 96C48 101.523 52.4772 106 58 106H86V134C86 139.523 90.4772 144 96 144C101.523 144 106 139.523 106 134V106H134C139.523 106 144 101.523 144 96C144 90.4772 139.523 86 134 86H106V58C106 52.4772 101.523 48 96 48Z" fill="white"/>
  <path d="M48 58C48 52.4772 52.4772 48 58 48C63.5228 48 68 52.4772 68 58V68H58C52.4772 68 48 63.5228 48 58Z" fill="white"/>
  <path d="M134 48C128.477 48 124 52.4772 124 58V68H134C139.523 68 144 63.5228 144 58C144 52.4772 139.523 48 134 48Z" fill="white"/>
  <path d="M48 134C48 139.523 52.4772 144 58 144C63.5228 144 68 139.523 68 134V124H58C52.4772 124 48 128.477 48 134Z" fill="white"/>
  <path d="M134 144C139.523 144 144 139.523 144 134C144 128.477 139.523 124 134 124H124V134C124 139.523 128.477 144 134 144Z" fill="white"/>
</svg>