<svg xmlns="http://www.w3.org/2000/svg" width="128" height="128" viewBox="0 0 512 512" fill="none">
  <rect width="512" height="512" rx="128" fill="#0EA5E9"/>
  <path d="M256 128C238.3 128 224 142.3 224 160V224H160C142.3 224 128 238.3 128 256C128 273.7 142.3 288 160 288H224V352C224 369.7 238.3 384 256 384C273.7 384 288 369.7 288 352V288H352C369.7 288 384 273.7 384 256C384 238.3 369.7 224 352 224H288V160C288 142.3 273.7 128 256 128Z" fill="white"/>
  <path d="M128 160C128 142.3 142.3 128 160 128C177.7 128 192 142.3 192 160V192H160C142.3 192 128 177.7 128 160Z" fill="white"/>
  <path d="M352 128C334.3 128 320 142.3 320 160V192H352C369.7 192 384 177.7 384 160C384 142.3 369.7 128 352 128Z" fill="white"/>
  <path d="M128 352C128 369.7 142.3 384 160 384C177.7 384 192 369.7 192 352V320H160C142.3 320 128 334.3 128 352Z" fill="white"/>
  <path d="M352 384C369.7 384 384 369.7 384 352C384 334.3 369.7 320 352 320H320V352C320 369.7 334.3 384 352 384Z" fill="white"/>
</svg>