<svg width="200" height="200" viewBox="0 0 200 200" fill="none" xmlns="http://www.w3.org/2000/svg">
  <rect width="200" height="200" fill="#F3F4F6"/>
  <path d="M100 70C88.9543 70 80 78.9543 80 90C80 101.046 88.9543 110 100 110C111.046 110 120 101.046 120 90C120 78.9543 111.046 70 100 70Z" fill="#D1D5DB"/>
  <path d="M140 140H60C60 123.431 73.4315 110 90 110H110C126.569 110 140 123.431 140 140Z" fill="#D1D5DB"/>
  <path d="M80 60H120M80 50H120" stroke="#9CA3AF" stroke-width="4" stroke-linecap="round"/>
  <path d="M60 160H140" stroke="#9CA3AF" stroke-width="4" stroke-linecap="round"/>
  <rect x="10" y="10" width="180" height="180" rx="8" stroke="#9CA3AF" stroke-width="4"/>
  <path d="M60 40L70 30L80 40" stroke="#9CA3AF" stroke-width="4" stroke-linecap="round" stroke-linejoin="round"/>
  <path d="M140 40L130 30L120 40" stroke="#9CA3AF" stroke-width="4" stroke-linecap="round" stroke-linejoin="round"/>
</svg>