<svg xmlns="http://www.w3.org/2000/svg" width="750" height="1334" viewBox="0 0 750 1334" fill="none">
  <rect width="750" height="1334" fill="#F3F4F6"/>
  
  <!-- Header -->
  <rect y="0" width="750" height="80" fill="#0EA5E9"/>
  <rect x="20" y="25" width="120" height="30" rx="5" fill="white"/>
  <rect x="610" y="25" width="120" height="30" rx="15" fill="white"/>
  
  <!-- Hero Section -->
  <rect x="50" y="120" width="650" height="60" rx="5" fill="#1E293B"/>
  <rect x="50" y="200" width="650" height="30" rx="5" fill="#475569"/>
  
  <!-- Upload Box -->
  <rect x="50" y="260" width="650" height="300" rx="10" stroke="#0EA5E9" stroke-width="4" fill="white" stroke-dasharray="15 10"/>
  <circle cx="375" cy="360" r="50" fill="#0EA5E9"/>
  <rect x="325" y="430" width="100" height="30" rx="5" fill="#0EA5E9"/>
  
  <!-- Popular Conversions -->
  <rect x="50" y="600" width="650" height="50" rx="5" fill="#1E293B"/>
  <rect x="50" y="670" width="150" height="80" rx="10" fill="#0EA5E9"/>
  <rect x="220" y="670" width="150" height="80" rx="10" fill="#0EA5E9"/>
  <rect x="390" y="670" width="150" height="80" rx="10" fill="#0EA5E9"/>
  <rect x="560" y="670" width="150" height="80" rx="10" fill="#0EA5E9"/>
  
  <!-- Testimonials -->
  <rect x="50" y="800" width="650" height="50" rx="5" fill="#1E293B"/>
  <rect x="50" y="870" width="650" height="120" rx="10" fill="white" stroke="#0EA5E9" stroke-width="2"/>
  <rect x="70" y="890" width="80" height="80" rx="40" fill="#0EA5E9"/>
  <rect x="170" y="900" width="500" height="20" rx="5" fill="#475569"/>
  <rect x="170" y="930" width="400" height="20" rx="5" fill="#475569"/>
  
  <!-- Footer -->
  <rect y="1050" width="750" height="284" fill="#1E293B"/>
  <rect x="50" y="1080" width="200" height="30" rx="5" fill="white"/>
  <rect x="50" y="1130" width="300" height="40" rx="5" fill="white"/>
  <rect x="370" y="1130" width="100" height="40" rx="5" fill="#0EA5E9"/>
  
  <rect x="50" y="1200" width="150" height="20" rx="5" fill="white"/>
  <rect x="50" y="1230" width="150" height="20" rx="5" fill="white"/>
  <rect x="50" y="1260" width="150" height="20" rx="5" fill="white"/>
  
  <rect x="250" y="1200" width="150" height="20" rx="5" fill="white"/>
  <rect x="250" y="1230" width="150" height="20" rx="5" fill="white"/>
  <rect x="250" y="1260" width="150" height="20" rx="5" fill="white"/>
  
  <rect x="450" y="1200" width="150" height="20" rx="5" fill="white"/>
  <rect x="450" y="1230" width="150" height="20" rx="5" fill="white"/>
  <rect x="450" y="1260" width="150" height="20" rx="5" fill="white"/>
</svg>